<?xml version="1.0" encoding="utf-8"?>
<!-- Generator: Adobe Illustrator 27.0.0, SVG Export Plug-In . SVG Version: 6.00 Build 0)  -->
<svg version="1.1" id="Layer_1" xmlns="http://www.w3.org/2000/svg" xmlns:xlink="http://www.w3.org/1999/xlink" x="0px" y="0px"
	 viewBox="0 0 526 526" style="enable-background:new 0 0 526 526;" xml:space="preserve">
<style type="text/css">
	.st0{fill:#FFFFFF;}
</style>
<g>
	<path d="M144.9,497.1c-22.8-11.7-44.2-24.6-60-43.4c-12.9-15.4-17.8-35.5-16-56.1c1-11.1,3.3-22,5.7-32.9
		c3.4-15.8,1.6-30.8-3.2-46.1c-3.7-11.7-6.8-23.9-7.9-36c-1.6-17,3.8-32.9,13-47.3c0.7-1.1,1.2-2.3,1.3-3.9
		c-22.1,13-36.7,32.4-46.4,55.6c-9.7,23.4-11.9,47.8-9.5,73.1c-0.6-1-1.3-2-1.7-3.1c-10-27-15.8-54.9-15.9-83.7
		c0-6.9,2.8-13.8,4.7-20.6c6.4-22.9,16.7-43.9,29.8-63.7c7.8-11.8,15.5-23.8,22.1-36.3c4-7.5,5.7-16.1,7.4-24.9
		c-18.9,9.2-32.5,23.5-44.9,39.6c2.4-5.3,4.6-10.7,7.1-15.9c2.6-5.3,5.2-10.6,8.4-15.5c7.6-11.5,15.4-22.9,23.7-33.9
		c2.7-3.6,3.5-6.7,2.7-11c-3.4-19.1-1.3-37.6,6.2-55.5c0.9-2.2,2.1-4.2,3.1-6.2c-1.4,10.7-3.8,21.2-4,31.7
		c-0.8,34.7,13.6,63.5,37.7,87.5c35.2,35.2,78.6,54.8,127.2,63.5c23.7,4.2,47.6,5.5,71.6,4.1c2.7-0.2,5.9,0.9,8.2,2.5
		c12.9,8.5,29.6,6.4,39.7-5.3c12-14,21.6-14.3,35.1-1.4c11.9,11.4,16.1,25.4,13.9,41.5c-0.2,1.5-0.9,2.9-1.7,5.3
		c-2.7-6.5-4.5-12.5-7.6-17.8c-3.3-5.7-7.3-11.3-12-15.9c-6.5-6.2-13.5-4.2-15.5,4.6c-2.3,9.8-3.4,19.9-5.2,30.7
		c-1.2-1.8-2.4-3.5-3.5-5.1c-8-11.8-17.8-21.2-32.5-23.6c-11.1-1.8-20.6,1.4-27.7,10.2c-6.1,7.6-7.4,16.1-3.8,25.2
		c3.6,9,12.7,15.3,21.8,14.6c2.6-0.2,5.2-1.3,7.8-2.1c-0.1-0.6-0.1-1.2-0.2-1.7c-2.6-0.2-5.3-0.2-7.9-0.7c-4.7-0.9-9.5-2.5-10.6-7.7
		c-0.5-2.2,1.3-7,2.4-7.1c4.4-0.4,9.4-0.6,13.2,1.2c7.5,3.7,11.2,10.7,10.4,19.1c-0.8,8.3-5,14.6-13.1,17.6
		c-8.2,3-15.9,1.6-21.8-4.8c-3.6-4-6.1-9-8.9-13.7c-2.9-4.9-5-10.3-8.3-14.8c-4.5-6.1-10.5-9.8-20.7-8.1c17.2,9.6,18.7,26.5,24,41.3
		c6.7,19,15,36.9,31.7,49.5c7.9,6,16.8,9.9,26.8,10.5c1.8,0.1,3.7-0.2,6.2-0.4c-5.7-4.5-10.8-8.1-15.3-12.4
		c-5.2-4.9-8-11.2-8.1-18.5c-0.2-13.4,10.8-22,23.7-18.4c3.6,1,7.4,2.7,10.3,5.1c15,12.4,26.6,27.3,32.8,45.9
		c3.1,9.4,0.3,14.6-9.5,17.3c-4.5,1.3-9.2,1.6-13.8,2.5c-3.4,0.7-6.8,1.4-10,2.7c-3.5,1.4-6.8,3.5-6,8c0.9,4.7,4.6,7.2,8.9,6.6
		c6.9-0.9,13.8-2.8,20.5-4.8c6.2-1.8,12.1-4.8,18.3-6.4c4.3-1.1,7.9-0.1,7.7,6.1c-0.1,2.3,2.6,5.5,4.8,6.9c9.1,5.6,18.9,7,29.3,4
		c2.1-0.6,4.5-0.6,6.7-0.9c0.2,0.5,0.5,1,0.7,1.4c-1.3,1.7-3,3.2-3.7,5.1c-1.4,3.5-3,7.2-3,10.8c0,1.8,3.4,3.5,5.3,5.3
		c1.7-1.9,4.4-3.6,5-5.8c0.6-2.2-0.7-5-1.2-7.6c9.3-9,9.1-14.5-0.7-23.7c-24.5-22.9-38.2-51.1-41.7-84.3c-0.2-2,0.6-5,2-6.2
		c12.3-10.2,17.2-23.7,16.3-38.9c-0.6-10.4-3.6-20.6-5.6-31.6c1.2,0.1,3.1,0.4,4.9,0.5c5.7,0.3,11.4,1.2,17,0.9
		c19.5-1.2,33.2-14.3,35.4-33.8c2.9-25-4.6-47.8-15.6-69.7c-19-37.8-49-65.2-85.2-86.6c2.5,2.3,5,4.6,7.5,7
		c28.5,27.9,45.7,61.3,49.3,101.2c0.7,8,0.1,16.3-1.6,24.1c-3.3,15.6-15.7,23.4-31.5,20.3c-5.5-1.1-11-3.2-15.8-5.9
		c-14-8-28.6-12.3-44.8-10.8c-2.3,0.2-5.2-1-7-2.5c-52.8-45.3-113.8-72.3-182.6-81.7c-11.5-1.5-23.1-2-34.6-2.8
		c-4.2-0.3-8.5,0-12.8,0.3c75.9,6.6,142,34.8,197.8,89c-2.6,0.7-4,1.3-5.4,1.4c-66.2,4.3-124.5-15.1-173.5-59.8
		c-12.1-11.1-21.5-25.2-32.1-38c-2.7-3.3-2.4-6,1.3-9.1c75.9-63.1,161.8-81.8,255-49.9c93.8,32.1,151.7,99.6,170.2,197
		C543.4,360.5,450.1,494,308.7,520c-2.2,0.4-5,0.4-7-0.6c-27.9-13.3-55.6-27.3-79.2-47.6c-25.1-21.6-43.7-47.5-49-81.1
		c-2.6-16.5,0.9-32.7,3.4-48.9c2.1-14,3.1-28.1,4.3-42.2c0.2-2.6-0.7-5.3-1.7-8c-6.8,28.1-24.3,50.3-38.7,74.2
		c-7.9,13.2-15.4,26.8-20.7,41.2c-11.7,31.5-4.1,59.4,19.1,83.3c1.7,1.7,3.5,3.4,5.2,5.1C144.6,495.5,144.5,495.8,144.9,497.1z
		 M159.2,268.3c-16.3-13.4-29.9-28.8-39.6-48.5c10.2,0.9,17.2,5.6,23.1,12c6.7,7.3,12.9,15.2,19.6,22.5c23,24.6,59.4,27.4,83.4,6.5
		c1.9-1.6,3.5-3.6,6.3-6.6c-4-0.9-6.7-2.1-9.3-2c-6.7,0.3-13.4,0.8-19.9,2c-18.3,3.3-38.7-4.9-48.2-20.2c6.6-1.5,12.9-2.9,20.9-4.7
		c-2.9-1.1-4.1-1.6-5.4-2c-21.5-6.1-42.9-12.3-64.5-18c-5.6-1.5-11.6-1.7-17.4-2c-2.3-0.1-4.7,1.2-7.8,2.1
		C114.4,235.7,133.8,255,159.2,268.3z M145.1,112.9c1.3,0.5,2.5,1.1,3.9,1.4c21.3,5,40.9,14.2,60.5,23.8c19.4,9.6,39.2,18.6,59,27.4
		c4.9,2.2,10.4,2.9,15.6,4.3c0.2-0.7,0.5-1.3,0.7-2C244.1,135,197.9,116,145.1,112.9z M397,406c-0.1-3.3-3-6-7.9-6.8
		c-6.9-1.1-13.4,2.9-15.9,9.5c-2.6,6.9-0.2,14.7,6.4,18.6c8.9,5.2,18.5,6.6,28,2.4c4.1-1.8,7.3-5.5,11-8.3c-0.4-0.7-0.9-1.3-1.3-2
		c-1.8,0.6-3.6,1.6-5.5,1.7c-5.8,0.3-11.7,1.1-17.3,0.2c-4.6-0.7-8.7-4.3-6.8-9.5C388.6,409.4,393,408.4,397,406z"/>
	<path d="M366.6,301.7c-12.6-3.1-24.4-16.6-25.1-28.6c-0.3-5.5,1.5-10.2,6.6-12.6c4.6-2.2,8.7-0.1,12.2,3c0.9,0.8,2,1.8,2.1,2.9
		C364,278.1,365.3,289.9,366.6,301.7z"/>
	<path d="M407.4,295.6c-1.4-10.7-2.8-21.4-4.1-32.2c6.9-0.5,11.4,3,10.9,9.9c-0.5,7.6-2.8,15.1-4.4,22.7
		C409,295.9,408.2,295.8,407.4,295.6z"/>
	<path class="st0" d="M159.2,268.3c-25.4-13.3-44.8-32.6-58.7-59c3.1-0.9,5.4-2.2,7.8-2.1c5.8,0.3,11.8,0.5,17.4,2
		c21.6,5.7,43,12,64.5,18c1.3,0.4,2.5,0.9,5.4,2c-8,1.8-14.4,3.2-20.9,4.7c9.5,15.3,29.9,23.5,48.2,20.2c6.6-1.2,13.3-1.7,19.9-2
		c2.6-0.1,5.3,1.1,9.3,2c-2.8,2.9-4.4,4.9-6.3,6.6c-24.1,20.8-60.4,18.1-83.4-6.5c-6.8-7.3-12.9-15.1-19.6-22.5
		c-5.9-6.4-12.8-11.1-23.1-12C129.3,239.5,142.9,254.9,159.2,268.3z"/>
	<path class="st0" d="M145.1,112.9c52.7,3.1,99,22.1,139.6,54.9c-0.2,0.7-0.5,1.3-0.7,2c-5.2-1.4-10.7-2.1-15.6-4.3
		c-19.8-8.9-39.5-17.8-59-27.4c-19.5-9.6-39.1-18.8-60.5-23.8C147.7,114,146.4,113.4,145.1,112.9z"/>
	<path class="st0" d="M397,406c-4,2.4-8.4,3.4-9.3,5.8c-1.9,5.2,2.2,8.8,6.8,9.5c5.6,0.9,11.5,0.1,17.3-0.2c1.8-0.1,3.6-1.1,5.5-1.7
		c0.4,0.7,0.9,1.3,1.3,2c-3.6,2.8-6.9,6.5-11,8.3c-9.5,4.2-19.2,2.8-28-2.4c-6.5-3.8-9-11.7-6.4-18.6c2.5-6.7,9-10.7,15.9-9.5
		C394,400,396.9,402.8,397,406z"/>
</g>
</svg>
