<?xml version="1.0" encoding="utf-8"?>
<!-- Generator: Adobe Illustrator 26.0.2, SVG Export Plug-In . SVG Version: 6.00 Build 0)  -->
<svg version="1.1" id="Layer_3" xmlns="http://www.w3.org/2000/svg" xmlns:xlink="http://www.w3.org/1999/xlink" x="0px" y="0px"
	 viewBox="0 0 300 120" style="enable-background:new 0 0 300 120;" xml:space="preserve">
<style type="text/css">
	.st0{fill:url(#SVGID_1_);}
	.st1{fill:#FFFFFF;}
</style>
<linearGradient id="SVGID_1_" gradientUnits="userSpaceOnUse" x1="27.2116" y1="41.0093" x2="62.0055" y2="80.2354" gradientTransform="matrix(1 0 0 -1 0 122)">
	<stop  offset="0.08" style="stop-color:#9945FF"/>
	<stop  offset="0.3" style="stop-color:#8752F3"/>
	<stop  offset="0.5" style="stop-color:#5497D5"/>
	<stop  offset="0.6" style="stop-color:#43B4CA"/>
	<stop  offset="0.72" style="stop-color:#28E0B9"/>
	<stop  offset="0.97" style="stop-color:#19FB9B"/>
</linearGradient>
<path class="st0" d="M65.814,72.064l-7,7.505c-0.151,0.163-0.335,0.293-0.539,0.382c-0.204,0.089-0.424,0.135-0.646,0.135H24.447
	c-0.158,0-0.313-0.046-0.445-0.133c-0.132-0.087-0.237-0.21-0.3-0.355c-0.063-0.145-0.083-0.305-0.056-0.461
	c0.026-0.156,0.098-0.301,0.205-0.417l6.992-7.505c0.151-0.163,0.335-0.293,0.539-0.382c0.204-0.089,0.424-0.135,0.646-0.135H65.21
	c0.16-0.003,0.317,0.041,0.452,0.127s0.241,0.21,0.306,0.356c0.065,0.146,0.085,0.308,0.057,0.465
	C65.997,71.802,65.924,71.948,65.814,72.064z M58.814,56.946c-0.152-0.162-0.335-0.292-0.539-0.381
	c-0.204-0.089-0.424-0.135-0.646-0.137H24.447c-0.158,0-0.313,0.046-0.445,0.133c-0.132,0.087-0.237,0.21-0.3,0.355
	c-0.063,0.145-0.083,0.305-0.056,0.461c0.026,0.156,0.098,0.301,0.205,0.417l6.992,7.509c0.152,0.162,0.335,0.292,0.539,0.381
	c0.204,0.089,0.424,0.135,0.646,0.137H65.21c0.158-0.001,0.312-0.048,0.444-0.135c0.132-0.087,0.235-0.211,0.298-0.355
	c0.063-0.145,0.082-0.305,0.055-0.461c-0.026-0.156-0.098-0.3-0.205-0.416L58.814,56.946z M24.447,51.554h33.182
	c0.222,0,0.443-0.046,0.646-0.135c0.204-0.089,0.387-0.219,0.539-0.382l7-7.505c0.11-0.116,0.183-0.262,0.21-0.419
	c0.027-0.157,0.008-0.319-0.057-0.465c-0.064-0.146-0.171-0.27-0.306-0.356s-0.292-0.13-0.452-0.127H32.028
	c-0.222,0-0.443,0.046-0.646,0.135c-0.204,0.089-0.387,0.219-0.539,0.382l-6.992,7.505c-0.108,0.116-0.179,0.261-0.205,0.417
	c-0.026,0.156-0.007,0.316,0.056,0.461s0.168,0.268,0.3,0.355C24.134,51.507,24.289,51.554,24.447,51.554z"/>
<path class="st1" d="M106.269,58.202H88.516v-5.846h22.366v-5.846H88.457c-0.766-0.004-1.526,0.143-2.235,0.432
	c-0.709,0.289-1.355,0.716-1.9,1.255c-0.545,0.539-0.978,1.18-1.275,1.886c-0.297,0.706-0.452,1.464-0.456,2.23v5.925
	c0.003,0.767,0.157,1.526,0.454,2.233c0.297,0.707,0.73,1.349,1.274,1.889c0.545,0.54,1.191,0.967,1.901,1.257
	s1.47,0.437,2.237,0.433h17.776v5.846h-23.22v5.846h23.255c0.766,0.004,1.526-0.143,2.235-0.432c0.709-0.289,1.355-0.716,1.9-1.255
	c0.545-0.539,0.978-1.18,1.275-1.886s0.452-1.464,0.456-2.23v-5.925c-0.003-0.767-0.157-1.526-0.454-2.233
	c-0.297-0.707-0.73-1.349-1.274-1.889c-0.545-0.54-1.191-0.967-1.901-1.257C107.796,58.345,107.035,58.198,106.269,58.202z"/>
<path class="st1" d="M140.66,46.509h-17.82c-0.768-0.006-1.529,0.139-2.24,0.427c-0.711,0.288-1.358,0.714-1.905,1.253
	c-0.547,0.539-0.981,1.181-1.279,1.888c-0.298,0.707-0.454,1.467-0.458,2.234v17.626c0.004,0.768,0.16,1.527,0.458,2.234
	c0.298,0.707,0.732,1.349,1.279,1.888c0.546,0.539,1.194,0.965,1.905,1.253c0.711,0.288,1.473,0.434,2.24,0.427h17.82
	c0.766,0.004,1.526-0.143,2.235-0.432c0.709-0.289,1.355-0.716,1.9-1.255c0.545-0.539,0.978-1.18,1.275-1.886
	c0.297-0.706,0.452-1.464,0.456-2.23V52.312c-0.004-0.766-0.159-1.524-0.456-2.23c-0.297-0.706-0.73-1.347-1.275-1.886
	c-0.544-0.539-1.19-0.965-1.9-1.255C142.185,46.652,141.426,46.505,140.66,46.509z M140.616,69.895h-17.733V52.356h17.725
	L140.616,69.895z"/>
<path class="st1" d="M203.074,46.509h-17.381c-0.766-0.004-1.526,0.143-2.235,0.432c-0.709,0.289-1.355,0.716-1.9,1.255
	c-0.545,0.539-0.978,1.18-1.275,1.886c-0.297,0.706-0.452,1.464-0.456,2.23v23.429h5.925v-9.603h17.302v9.603h5.925V52.312
	c-0.004-0.77-0.16-1.531-0.46-2.24c-0.3-0.709-0.736-1.352-1.285-1.891c-0.549-0.539-1.199-0.965-1.913-1.252
	S203.843,46.5,203.074,46.509z M203.03,60.292h-17.302v-7.936h17.302V60.292z"/>
<path class="st1" d="M272.263,46.509h-17.381c-0.766-0.004-1.526,0.143-2.235,0.432c-0.709,0.289-1.355,0.716-1.9,1.255
	c-0.545,0.539-0.978,1.18-1.275,1.886c-0.297,0.706-0.452,1.464-0.456,2.23v23.429h5.925v-9.603h17.263v9.603h5.925V52.312
	c-0.004-0.766-0.159-1.524-0.456-2.23c-0.297-0.706-0.73-1.347-1.275-1.886c-0.545-0.539-1.19-0.965-1.9-1.255
	C273.788,46.652,273.029,46.505,272.263,46.509z M272.203,60.292h-17.302v-7.936h17.302V60.292z"/>
<path class="st1" d="M237.836,69.895h-2.37l-8.473-20.936c-0.29-0.722-0.79-1.341-1.435-1.778c-0.645-0.436-1.405-0.67-2.184-0.671
	h-5.258c-0.511-0.003-1.018,0.095-1.49,0.289c-0.473,0.193-0.903,0.478-1.267,0.837c-0.363,0.36-0.652,0.787-0.85,1.258
	c-0.198,0.471-0.301,0.977-0.304,1.488v25.361h5.925V52.356h2.37l8.469,20.936c0.295,0.721,0.799,1.337,1.446,1.771
	c0.647,0.433,1.409,0.664,2.188,0.662h5.258c0.511,0.003,1.018-0.095,1.49-0.289c0.473-0.193,0.903-0.478,1.267-0.837
	c0.363-0.359,0.652-0.787,0.85-1.258c0.198-0.471,0.301-0.977,0.304-1.488V46.509h-5.937V69.895z"/>
<path class="st1" d="M157.685,46.509h-5.925v23.429c0.004,0.768,0.16,1.527,0.458,2.235c0.298,0.708,0.733,1.349,1.28,1.888
	c0.547,0.539,1.195,0.965,1.906,1.253c0.712,0.288,1.473,0.433,2.241,0.426h17.776v-5.846h-17.737V46.509z"/>
</svg>
